<?xml version="1.0" encoding="utf-8"?>
<!-- Generator: Adobe Illustrator 24.0.2, SVG Export Plug-In . SVG Version: 6.00 Build 0)  -->
<svg version="1.1" id="레이어_1" xmlns="http://www.w3.org/2000/svg" xmlns:xlink="http://www.w3.org/1999/xlink" x="0px"
	 y="0px" viewBox="0 0 216.6 35.4" style="enable-background:new 0 0 216.6 35.4;" xml:space="preserve">
<style type="text/css">
	.st0{fill:#FFFFFF;}
	.st1{fill:#0080FF;}
</style>
<g>
	<g>
		<g>
			<path class="st0" d="M12.3,7.3c-3.5,0-5.4,1.9-5.5,2.3H6.7V7.7H0v27.4h6.7v-9.2h0.1c0.2,0.3,2,2.3,5.5,2.3
				c4.5,0,9.5-3.4,9.5-10.4C21.8,10.7,16.8,7.3,12.3,7.3z M10.9,22.2c-2.4,0-4.4-1.7-4.4-4.5c0-2.9,2-4.5,4.4-4.5
				c2.3,0,4.4,1.7,4.4,4.5C15.3,20.5,13.2,22.2,10.9,22.2z"/>
			<path class="st0" d="M35.1,18.3c0,2.1-1,3.9-3.2,3.9c-2.3,0-3.3-1.8-3.3-3.9V7.7H22v11.8c0,6.1,3.4,8.6,7.4,8.6
				c2.7,0,4.6-1.1,5.7-2.7v2.4h6.7V7.7h-6.7V18.3z"/>
			<path class="st0" d="M79.8,9.5h-0.1c-0.2-0.3-2-2.3-5.6-2.3c-4.5,0-9.5,3.4-9.5,10.4c0,0.3,0,0.7,0,1c-1-1.6-2.8-2.5-4.1-2.9
				l-2.7-1c-1.2-0.3-1.4-0.8-1.4-1.3c0-0.4,0.3-1.1,1.4-1.1c0.6,0,1.5,0.2,2,1.8l5.2-1.3c-0.7-3.4-3.5-5.6-7.4-5.6
				c-4.1,0-7.6,2.2-7.6,6.1c0,2.6,1.4,4.8,4.7,5.9l2.9,1.1c1,0.3,1.3,0.8,1.3,1.3c0,0.8-0.8,1.3-1.7,1.3c-1.8,0-2.2-1.3-2.5-2
				l-5.2,1.4v-22h-6.7v27.4h6.7v-5c0.8,3.7,3.8,5.4,7.8,5.4c4.5,0,7.8-2.2,8.1-5.9c1.6,4,5.3,5.9,8.7,5.9c3.5,0,5.4-1.9,5.6-2.3h0.1
				v1.9h6.7V7.7h-6.7V9.5z M75.5,22.2c-2.3,0-4.4-1.7-4.4-4.5c0-2.8,2-4.5,4.4-4.5c2.4,0,4.4,1.7,4.4,4.5
				C79.9,20.5,77.9,22.2,75.5,22.2z"/>
			<path class="st0" d="M100.4,7.3c-3.5,0-5.5,2.5-6.1,5.9V7.7h-6.7v20.1h6.7v-7.8c0-3.6,2.2-6.3,6.2-6.3c0.5,0,1,0,1.5,0.2V7.5
				C101.3,7.3,100.8,7.3,100.4,7.3z"/>
		</g>
		<path class="st1" d="M104.1,21.7l1.4-3.9l-2.1-0.7l-1.4,3.9c-1.6-0.1-3.1,0.8-3.7,2.5c-0.6,1.7,0,3.4,1.3,4.3l-1.4,3.9l2.1,0.7
			l1.4-3.9c1.5,0.1,3.1-0.8,3.7-2.5C106,24.2,105.3,22.6,104.1,21.7z"/>
	</g>
	<g>
		<path class="st0" d="M116.3,27.7c-3.2,0-6-2.3-6-5.9s2.8-5.9,6-5.9c1.6,0,3.6,0.6,4.7,2.6l-1.9,1.3c-0.7-1-1.6-1.4-2.8-1.4
			c-1.9,0-3.4,1.3-3.4,3.5s1.5,3.6,3.4,3.6c1.2,0,2.3-0.5,2.7-2h-2.6v-2.1h5.1C122.2,25.3,119.5,27.7,116.3,27.7z"/>
		<path class="st0" d="M122.2,23.3c0-2.9,2.1-4.4,4-4.4c1.5,0,2.4,0.8,2.5,1.1h0v-1h2.5v8.5h-2.5v-1h0c-0.1,0.3-1,1.1-2.5,1.1
			C124.3,27.7,122.2,26.3,122.2,23.3z M128.9,23.3c0-1.4-1-2.1-2.1-2.1c-1.1,0-2.1,0.8-2.1,2.1c0,1.4,1,2.1,2.1,2.1
			C127.9,25.5,128.9,24.7,128.9,23.3z"/>
		<path class="st0" d="M145.6,22.7v4.9h-2.5v-4.8c0-1.1-0.6-1.6-1.4-1.6c-0.8,0-1.4,0.5-1.4,1.6v4.8h-2.5v-4.8
			c0-1.1-0.6-1.6-1.4-1.6c-0.8,0-1.4,0.5-1.4,1.6v4.8h-2.5v-8.5h2.5v1c0.5-0.7,1.2-1.2,2.4-1.2c1,0,1.9,0.4,2.4,1.3
			c0.5-0.8,1.4-1.3,2.8-1.3C144.3,18.9,145.6,20.1,145.6,22.7z"/>
		<path class="st0" d="M146.7,16h2.5v2.2h-2.5V16z M146.7,19.1h2.5v8.5h-2.5V19.1z"/>
		<path class="st0" d="M158.6,22.6v5H156V23c0-1.1-0.5-1.8-1.6-1.8c-1,0-1.6,0.8-1.6,1.8v4.5h-2.5v-8.5h2.5v1.1
			c0.5-0.7,1.3-1.2,2.5-1.2C157.1,18.9,158.6,20,158.6,22.6z"/>
		<path class="st0" d="M168.4,19.1v7.8c0,3.4-2.6,4.1-4.5,4.1c-0.9,0-1.9-0.1-2.5-0.5v-2c0.4,0.3,1.2,0.4,2,0.4
			c1.6,0,2.5-0.7,2.5-1.8v-0.5h-0.1c-0.1,0.3-1,1.1-2.4,1.1c-1.9,0-4.1-1.4-4.1-4.4s2.1-4.4,4.1-4.4c1.5,0,2.3,0.8,2.4,1.1h0.1v-1
			H168.4z M165.9,23.3c0-1.4-1-2.1-2.1-2.1c-1.1,0-2.1,0.8-2.1,2.1c0,1.4,1,2.1,2.1,2.1C165,25.5,165.9,24.7,165.9,23.3z"/>
		<path class="st0" d="M178.2,27.7c-3.2,0-6-2.3-6-5.9s2.8-5.9,6-5.9c1.6,0,3.5,0.6,4.7,2.6l-1.9,1.3c-0.7-1-1.6-1.4-2.9-1.4
			c-1.9,0-3.4,1.3-3.4,3.5s1.5,3.6,3.4,3.6c1.2,0,2.3-0.5,2.7-2h-2.6v-2.1h5.1C184.1,25.3,181.5,27.7,178.2,27.7z"/>
		<path class="st0" d="M192.6,24.3h-6c0.3,0.9,1.2,1.4,2.3,1.4c0.7,0,1.4-0.2,2-0.7l1.1,1.2c-0.7,0.9-1.9,1.5-3.5,1.5
			c-2.3,0-4.5-1.6-4.5-4.4c0-2.9,2.1-4.4,4.3-4.4C190.6,18.9,193.1,20.4,192.6,24.3z M186.5,22.5h3.9c-0.2-1-1-1.4-1.9-1.4
			C187.6,21,186.8,21.5,186.5,22.5z"/>
		<path class="st0" d="M193,23.3c0-2.9,2.1-4.4,4-4.4c1.5,0,2.4,0.8,2.5,1.1h0v-1h2.5v8.5h-2.5v-1h0c-0.1,0.3-1,1.1-2.5,1.1
			C195.1,27.7,193,26.3,193,23.3z M199.7,23.3c0-1.4-1-2.1-2.1-2.1c-1.1,0-2.1,0.8-2.1,2.1c0,1.4,1,2.1,2.1,2.1
			C198.7,25.5,199.7,24.7,199.7,23.3z"/>
		<path class="st0" d="M209,19v2.4c-0.2,0-0.4,0-0.6,0c-1.7,0-2.6,1.1-2.6,2.7v3.5h-2.5v-8.5h2.5v2.3c0.3-1.4,1.1-2.5,2.6-2.5
			C208.6,18.9,208.8,18.9,209,19z"/>
		<path class="st0" d="M209.1,25.3l2-0.5c0.1,0.4,0.4,1,1.2,1c0.5,0,0.9-0.2,0.9-0.7c0-0.3-0.2-0.5-0.7-0.7l-1.1-0.4
			c-1.4-0.5-2-1.4-2-2.5c0-1.6,1.4-2.5,3.1-2.5c1.6,0,2.8,0.9,3,2.3l-2,0.5c-0.2-0.7-0.6-0.8-1-0.8c-0.5,0-0.7,0.3-0.7,0.6
			c0,0.3,0.2,0.5,0.7,0.7l1.1,0.4c0.9,0.3,2.1,0.9,2.1,2.5c0,1.7-1.4,2.7-3.3,2.7C210.6,27.7,209.3,26.9,209.1,25.3z"/>
	</g>
</g>
</svg>
